<svg xmlns="http://www.w3.org/2000/svg" fill="none" viewBox="-0.5 -0.5 24 24" id="Rss-Feed--Streamline-Outlined----Material-Symbols.svg" height="24" width="24"><desc>Rss Feed Streamline Icon: https://streamlinehq.com</desc><path fill="#6f6f6f" d="M4.670916666666667 20.125c-0.49450000000000005 0 -0.9174460416666668 -0.17599791666666667 -1.2688333333333335 -0.5280416666666667 -0.3513872916666667 -0.3521875 -0.5270833333333333 -0.7754354166666667 -0.5270833333333333 -1.2697916666666667 0 -0.49450000000000005 0.17601229166666668 -0.9174604166666668 0.5280416666666667 -1.2688333333333335 0.3521875 -0.35137291666666665 0.7754497916666667 -0.5270833333333333 1.2697916666666667 -0.5270833333333333 0.49450000000000005 0 0.9174604166666668 0.17599791666666667 1.2688333333333335 0.5280416666666667 0.35137291666666665 0.3521875 0.5270833333333333 0.7754354166666667 0.5270833333333333 1.2697916666666667 0 0.49450000000000005 -0.17599791666666667 0.9174604166666668 -0.5280416666666667 1.2688333333333335 -0.3521875 0.35137291666666665 -0.7754354166666667 0.5270833333333333 -1.2697916666666667 0.5270833333333333ZM17.010416666666668 20.125c0 -1.9645833333333333 -0.36737708333333335 -3.7973958333333333 -1.1020833333333333 -5.4984375 -0.7347062500000001 -1.7010416666666666 -1.7489583333333334 -3.1984375 -3.042708333333333 -4.4921875 -1.2937500000000002 -1.2937500000000002 -2.79176875 -2.3080020833333332 -4.494104166666666 -3.042708333333333 -1.70214375 -0.7347062500000001 -3.5343333333333335 -1.1020833333333333 -5.496520833333333 -1.1020833333333333V3.8333333333333335c2.2680395833333336 0 4.384375 0.4232622916666667 6.348958333333334 1.2697916666666667 1.9645833333333333 0.84654375 3.6895833333333337 2.0125 5.175000000000001 3.497916666666667 1.4854166666666668 1.4854166666666668 2.6513729166666664 3.2104166666666667 3.497916666666667 5.175000000000001C18.74341875 15.740625000000001 19.166666666666668 17.856960416666666 19.166666666666668 20.125h-2.15625Zm-6.18125 0c0 -1.1180395833333334 -0.20604166666666668 -2.168085416666667 -0.618125 -3.1500416666666666 -0.41208333333333336 -0.9819562500000001 -0.9807104166666667 -1.8486250000000002 -1.7058333333333335 -2.5999583333333334 -0.71875 -0.7507104166666667 -1.55753125 -1.3376895833333333 -2.5163437500000003 -1.7609375C5.030195833333334 12.190814583333335 3.992258541666667 11.979166666666668 2.875 11.979166666666668v-2.15625c1.4215293750000002 0 2.7432291666666666 0.26751875 3.965104166666667 0.8026041666666667 1.221875 0.5350854166666666 2.289122916666667 1.2731458333333334 3.201791666666667 2.214229166666667 0.9128125 0.9412270833333334 1.6315625 2.03535625 2.15625 3.2822916666666666C12.722977083333333 17.36916875 12.985416666666667 18.70345625 12.985416666666667 20.125h-2.15625Z" stroke-width="1"></path></svg>